ffmpeg started on 2025-06-19 at 11:53:23
Report written to "D:\Convert\FFMetrics\reports\ssim_report-6.txt"
Log level: 32
Command line:
ffmpeg -hide_banner -nostdin -i "G:\\\xc0\xed\xe8\xec\xe5\\[\xd2\xee\xef-4]\\Fate\\\xc0\xef\xee\xea\xf0\xe8\xf4\\Fate_Apocrypha_[09]_[AniLibria_TV]_[HDTVRip_720p]_HEVC.mkv" -i "G:\\\xc0\xed\xe8\xec\xe5\\[\xd2\xee\xef-4]\\Fate\\\xc0\xef\xee\xea\xf0\xe8\xf4\\Fate_Apocrypha_[09]_[AniLibria_TV]_[HDTVRip_720p].mkv" -lavfi "[0:v]settb=AVTB,setpts=PTS-STARTPTS,format=pix_fmts=yuv420p10,fps=24000/1001,scale=1280:720:flags=bicubic[main];[1:v]settb=AVTB,setpts=PTS-STARTPTS,format=pix_fmts=yuv420p,fps=24000/1001,scale=1280:720:flags=bicubic[ref];[main][ref]ssim=eof_action=endall:stats_file='D\\:/Convert/FFMetrics/logs/ssim_logfile-6.txt'" -f null -
Input #0, matroska,webm, from 'G:\Аниме\[Топ-4]\Fate\Апокриф\Fate_Apocrypha_[09]_[AniLibria_TV]_[HDTVRip_720p]_HEVC.mkv':
  Metadata:
    ENCODER         : Lavf61.7.100
  Duration: 00:24:00.17, start: -0.021000, bitrate: 861 kb/s
  Stream #0:0(jpn): Video: hevc (Main 10), yuv420p10le(tv, bt709, progressive), 1280x720 [SAR 1:1 DAR 16:9], 23.81 fps, 23.81 tbr, 1k tbn (default)
      Metadata:
        ENCODER         : Lavc61.19.100 libx265
        BPS             : 662343
        DURATION        : 00:24:00.096000000
        NUMBER_OF_FRAMES: 34526
        NUMBER_OF_BYTES : 119229856
        _STATISTICS_WRITING_APP: mkvpropedit v66.0.0 ('Josie') 64-bit
        _STATISTICS_WRITING_DATE_UTC: 2025-06-16 16:03:56
        _STATISTICS_TAGS: BPS DURATION NUMBER_OF_FRAMES NUMBER_OF_BYTES
  Stream #0:1(rus): Audio: aac (LC), 48000 Hz, stereo, fltp (default)
      Metadata:
        title           : Ados Amikiri Anzen Hekomi Silv
        ENCODER         : Lavc61.19.100 aac
        BPS             : 194480
        DURATION        : 00:24:00.149000000
        NUMBER_OF_FRAMES: 67508
        NUMBER_OF_BYTES : 35010199
        _STATISTICS_WRITING_APP: mkvpropedit v66.0.0 ('Josie') 64-bit
        _STATISTICS_WRITING_DATE_UTC: 2025-06-16 16:03:56
        _STATISTICS_TAGS: BPS DURATION NUMBER_OF_FRAMES NUMBER_OF_BYTES
  Stream #0:2(rus): Subtitle: ass (ssa) (default) (forced)
      Metadata:
        title           : Надписи
        BPS             : 164
        DURATION        : 00:21:49.420000000
        NUMBER_OF_FRAMES: 201
        NUMBER_OF_BYTES : 26912
        _STATISTICS_WRITING_APP: mkvpropedit v66.0.0 ('Josie') 64-bit
        _STATISTICS_WRITING_DATE_UTC: 2025-06-16 16:03:56
        _STATISTICS_TAGS: BPS DURATION NUMBER_OF_FRAMES NUMBER_OF_BYTES
  Stream #0:3(rus): Subtitle: ass (ssa)
      Metadata:
        title           : Полные
        BPS             : 226
        DURATION        : 00:23:40.100000000
        NUMBER_OF_FRAMES: 389
        NUMBER_OF_BYTES : 40214
        _STATISTICS_WRITING_APP: mkvpropedit v66.0.0 ('Josie') 64-bit
        _STATISTICS_WRITING_DATE_UTC: 2025-06-16 16:03:56
        _STATISTICS_TAGS: BPS DURATION NUMBER_OF_FRAMES NUMBER_OF_BYTES
Input #1, matroska,webm, from 'G:\Аниме\[Топ-4]\Fate\Апокриф\Fate_Apocrypha_[09]_[AniLibria_TV]_[HDTVRip_720p].mkv':
  Metadata:
    encoder         : libebml v1.3.0 + libmatroska v1.4.1
    creation_time   : 2017-08-27T20:52:38.000000Z
  Duration: 00:24:00.15, start: 0.000000, bitrate: 2854 kb/s
  Stream #1:0: Video: h264 (Main), yuv420p(tv, bt709, progressive), 1280x720, SAR 1:1 DAR 16:9, 23.81 fps, 23.81 tbr, 1k tbn (default)
      Metadata:
        BPS             : 2436565
        BPS-eng         : 2436565
        DURATION        : 00:24:00.075000000
        DURATION-eng    : 00:24:00.075000000
        NUMBER_OF_FRAMES: 34526
        NUMBER_OF_FRAMES-eng: 34526
        NUMBER_OF_BYTES : 438604585
        NUMBER_OF_BYTES-eng: 438604585
        _STATISTICS_WRITING_APP: mkvmerge v7.3.0 ('Nouages') 64bit built on Oct 22 2014 18:53:34
        _STATISTICS_WRITING_APP-eng: mkvmerge v7.3.0 ('Nouages') 64bit built on Oct 22 2014 18:53:34
        _STATISTICS_WRITING_DATE_UTC: 2017-08-27 20:52:38
        _STATISTICS_WRITING_DATE_UTC-eng: 2017-08-27 20:52:38
        _STATISTICS_TAGS: BPS DURATION NUMBER_OF_FRAMES NUMBER_OF_BYTES
        _STATISTICS_TAGS-eng: BPS DURATION NUMBER_OF_FRAMES NUMBER_OF_BYTES
  Stream #1:1(rus): Audio: aac (LC), 48000 Hz, stereo, fltp (default)
      Metadata:
        title           : Ados Amikiri Anzen Hekomi Silv
        BPS             : 192091
        BPS-eng         : 192091
        DURATION        : 00:24:00.149000000
        DURATION-eng    : 00:24:00.149000000
        NUMBER_OF_FRAMES: 67507
        NUMBER_OF_FRAMES-eng: 67507
        NUMBER_OF_BYTES : 34580098
        NUMBER_OF_BYTES-eng: 34580098
        _STATISTICS_WRITING_APP: mkvmerge v7.3.0 ('Nouages') 64bit built on Oct 22 2014 18:53:34
        _STATISTICS_WRITING_APP-eng: mkvmerge v7.3.0 ('Nouages') 64bit built on Oct 22 2014 18:53:34
        _STATISTICS_WRITING_DATE_UTC: 2017-08-27 20:52:38
        _STATISTICS_WRITING_DATE_UTC-eng: 2017-08-27 20:52:38
        _STATISTICS_TAGS: BPS DURATION NUMBER_OF_FRAMES NUMBER_OF_BYTES
        _STATISTICS_TAGS-eng: BPS DURATION NUMBER_OF_FRAMES NUMBER_OF_BYTES
  Stream #1:2(jpn): Audio: aac (LC), 48000 Hz, stereo, fltp
      Metadata:
        title           : Оригинал
        BPS             : 220489
        BPS-eng         : 220489
        DURATION        : 00:24:00.106000000
        DURATION-eng    : 00:24:00.106000000
        NUMBER_OF_FRAMES: 67505
        NUMBER_OF_FRAMES-eng: 67505
        NUMBER_OF_BYTES : 39691072
        NUMBER_OF_BYTES-eng: 39691072
        _STATISTICS_WRITING_APP: mkvmerge v7.3.0 ('Nouages') 64bit built on Oct 22 2014 18:53:34
        _STATISTICS_WRITING_APP-eng: mkvmerge v7.3.0 ('Nouages') 64bit built on Oct 22 2014 18:53:34
        _STATISTICS_WRITING_DATE_UTC: 2017-08-27 20:52:38
        _STATISTICS_WRITING_DATE_UTC-eng: 2017-08-27 20:52:38
        _STATISTICS_TAGS: BPS DURATION NUMBER_OF_FRAMES NUMBER_OF_BYTES
        _STATISTICS_TAGS-eng: BPS DURATION NUMBER_OF_FRAMES NUMBER_OF_BYTES
  Stream #1:3(rus): Subtitle: ass (ssa) (default) (forced)
      Metadata:
        title           : Надписи
        BPS             : 164
        BPS-eng         : 164
        DURATION        : 00:21:49.420000000
        DURATION-eng    : 00:21:49.420000000
        NUMBER_OF_FRAMES: 201
        NUMBER_OF_FRAMES-eng: 201
        NUMBER_OF_BYTES : 26912
        NUMBER_OF_BYTES-eng: 26912
        _STATISTICS_WRITING_APP: mkvmerge v7.3.0 ('Nouages') 64bit built on Oct 22 2014 18:53:34
        _STATISTICS_WRITING_APP-eng: mkvmerge v7.3.0 ('Nouages') 64bit built on Oct 22 2014 18:53:34
        _STATISTICS_WRITING_DATE_UTC: 2017-08-27 20:52:38
        _STATISTICS_WRITING_DATE_UTC-eng: 2017-08-27 20:52:38
        _STATISTICS_TAGS: BPS DURATION NUMBER_OF_FRAMES NUMBER_OF_BYTES
        _STATISTICS_TAGS-eng: BPS DURATION NUMBER_OF_FRAMES NUMBER_OF_BYTES
  Stream #1:4(rus): Subtitle: ass (ssa)
      Metadata:
        title           : Полные
        BPS             : 226
        BPS-eng         : 226
        DURATION        : 00:23:40.100000000
        DURATION-eng    : 00:23:40.100000000
        NUMBER_OF_FRAMES: 389
        NUMBER_OF_FRAMES-eng: 389
        NUMBER_OF_BYTES : 40214
        NUMBER_OF_BYTES-eng: 40214
        _STATISTICS_WRITING_APP: mkvmerge v7.3.0 ('Nouages') 64bit built on Oct 22 2014 18:53:34
        _STATISTICS_WRITING_APP-eng: mkvmerge v7.3.0 ('Nouages') 64bit built on Oct 22 2014 18:53:34
        _STATISTICS_WRITING_DATE_UTC: 2017-08-27 20:52:38
        _STATISTICS_WRITING_DATE_UTC-eng: 2017-08-27 20:52:38
        _STATISTICS_TAGS: BPS DURATION NUMBER_OF_FRAMES NUMBER_OF_BYTES
        _STATISTICS_TAGS-eng: BPS DURATION NUMBER_OF_FRAMES NUMBER_OF_BYTES
  Stream #1:5: Attachment: ttf
      Metadata:
        filename        : ALBR.ttf
        mimetype        : application/x-truetype-font
  Stream #1:6: Attachment: ttf
      Metadata:
        filename        : 9511(1).ttf
        mimetype        : application/x-truetype-font
Stream mapping:
  Stream #0:0 (hevc) -> settb:default
  Stream #1:0 (h264) -> settb:default
  ssim:default -> Stream #0:0 (wrapped_avframe)
  Stream #0:1 -> #0:1 (aac (native) -> pcm_s16le (native))
Output #0, null, to 'pipe:':
  Metadata:
    encoder         : Lavf61.7.100
  Stream #0:0: Video: wrapped_avframe, yuv420p10le(tv, bt709, progressive), 1280x720 [SAR 1:1 DAR 16:9], q=2-31, 200 kb/s, 23.98 fps, 23.98 tbn
      Metadata:
        encoder         : Lavc61.19.100 wrapped_avframe
  Stream #0:1(rus): Audio: pcm_s16le, 48000 Hz, stereo, s16, 1536 kb/s (default)
      Metadata:
        title           : Ados Amikiri Anzen Hekomi Silv
        _STATISTICS_TAGS: BPS DURATION NUMBER_OF_FRAMES NUMBER_OF_BYTES
        BPS             : 194480
        DURATION        : 00:24:00.149000000
        NUMBER_OF_FRAMES: 67508
        NUMBER_OF_BYTES : 35010199
        _STATISTICS_WRITING_APP: mkvpropedit v66.0.0 ('Josie') 64-bit
        _STATISTICS_WRITING_DATE_UTC: 2025-06-16 16:03:56
        encoder         : Lavc61.19.100 pcm_s16le
frame=  389 fps=0.0 q=-0.0 size=N/A time=00:00:16.22 bitrate=N/A speed=30.9x    frame=  898 fps=871 q=-0.0 size=N/A time=00:00:37.45 bitrate=N/A speed=36.3x    frame= 1384 fps=890 q=-0.0 size=N/A time=00:00:57.72 bitrate=N/A speed=37.1x    frame= 1847 fps=896 q=-0.0 size=N/A time=00:01:17.03 bitrate=N/A speed=37.4x    frame= 2362 fps=918 q=-0.0 size=N/A time=00:01:38.51 bitrate=N/A speed=38.3x    frame= 2753 fps=889 q=-0.0 size=N/A time=00:01:54.82 bitrate=N/A speed=37.1x    frame= 3236 fps=894 q=-0.0 size=N/A time=00:02:14.96 bitrate=N/A speed=37.3x    frame= 3688 fps=893 q=-0.0 size=N/A time=00:02:33.82 bitrate=N/A speed=37.2x    frame= 4093 fps=882 q=-0.0 size=N/A time=00:02:50.71 bitrate=N/A speed=36.8x    frame= 4458 fps=863 q=-0.0 size=N/A time=00:03:05.93 bitrate=N/A speed=  36x    frame= 4924 fps=865 q=-0.0 size=N/A time=00:03:25.37 bitrate=N/A speed=36.1x    frame= 5389 fps=869 q=-0.0 size=N/A time=00:03:44.76 bitrate=N/A speed=36.2x    frame= 5816 fps=864 q=-0.0 size=N/A time=00:04:02.57 bitrate=N/A speed=36.1x    frame= 6181 fps=855 q=-0.0 size=N/A time=00:04:17.79 bitrate=N/A speed=35.6x    frame= 6662 fps=859 q=-0.0 size=N/A time=00:04:37.86 bitrate=N/A speed=35.8x    frame= 7081 fps=857 q=-0.0 size=N/A time=00:04:55.33 bitrate=N/A speed=35.7x    frame= 7455 fps=848 q=-0.0 size=N/A time=00:05:10.93 bitrate=N/A speed=35.4x    frame= 7922 fps=850 q=-0.0 size=N/A time=00:05:30.41 bitrate=N/A speed=35.5x    frame= 8242 fps=839 q=-0.0 size=N/A time=00:05:43.76 bitrate=N/A speed=  35x    frame= 8693 fps=840 q=-0.0 size=N/A time=00:06:02.57 bitrate=N/A speed=  35x    frame= 9163 fps=844 q=-0.0 size=N/A time=00:06:22.17 bitrate=N/A speed=35.2x    frame= 9602 fps=844 q=-0.0 size=N/A time=00:06:40.48 bitrate=N/A speed=35.2x    frame=10042 fps=844 q=-0.0 size=N/A time=00:06:58.83 bitrate=N/A speed=35.2x    frame=10443 fps=842 q=-0.0 size=N/A time=00:07:15.56 bitrate=N/A speed=35.1x    frame=10888 fps=842 q=-0.0 size=N/A time=00:07:34.12 bitrate=N/A speed=35.1x    frame=11325 fps=843 q=-0.0 size=N/A time=00:07:52.34 bitrate=N/A speed=35.1x    frame=11706 fps=839 q=-0.0 size=N/A time=00:08:08.23 bitrate=N/A speed=  35x    frame=12141 fps=839 q=-0.0 size=N/A time=00:08:26.38 bitrate=N/A speed=  35x    frame=12471 fps=832 q=-0.0 size=N/A time=00:08:40.14 bitrate=N/A speed=34.7x    frame=12785 fps=825 q=-0.0 size=N/A time=00:08:53.24 bitrate=N/A speed=34.4x    frame=13327 fps=832 q=-0.0 size=N/A time=00:09:15.84 bitrate=N/A speed=34.7x    frame=13810 fps=835 q=-0.0 size=N/A time=00:09:35.99 bitrate=N/A speed=34.8x    frame=14289 fps=838 q=-0.0 size=N/A time=00:09:55.97 bitrate=N/A speed=  35x    frame=14869 fps=846 q=-0.0 size=N/A time=00:10:20.16 bitrate=N/A speed=35.3x    frame=15394 fps=852 q=-0.0 size=N/A time=00:10:42.05 bitrate=N/A speed=35.5x    frame=15933 fps=856 q=-0.0 size=N/A time=00:11:04.53 bitrate=N/A speed=35.7x    frame=16313 fps=853 q=-0.0 size=N/A time=00:11:20.38 bitrate=N/A speed=35.6x    frame=16702 fps=851 q=-0.0 size=N/A time=00:11:36.61 bitrate=N/A speed=35.5x    frame=17243 fps=856 q=-0.0 size=N/A time=00:11:59.17 bitrate=N/A speed=35.7x    frame=17866 fps=865 q=-0.0 size=N/A time=00:12:25.16 bitrate=N/A speed=36.1x    frame=18466 fps=872 q=-0.0 size=N/A time=00:12:50.18 bitrate=N/A speed=36.4x    frame=19003 fps=876 q=-0.0 size=N/A time=00:13:12.58 bitrate=N/A speed=36.5x    frame=19377 fps=873 q=-0.0 size=N/A time=00:13:28.18 bitrate=N/A speed=36.4x    frame=19943 fps=878 q=-0.0 size=N/A time=00:13:51.78 bitrate=N/A speed=36.6x    frame=20522 fps=883 q=-0.0 size=N/A time=00:14:15.93 bitrate=N/A speed=36.8x    frame=20896 fps=880 q=-0.0 size=N/A time=00:14:31.53 bitrate=N/A speed=36.7x    frame=21477 fps=885 q=-0.0 size=N/A time=00:14:55.76 bitrate=N/A speed=36.9x    frame=22020 fps=888 q=-0.0 size=N/A time=00:15:18.41 bitrate=N/A speed=37.1x    frame=22363 fps=884 q=-0.0 size=N/A time=00:15:32.72 bitrate=N/A speed=36.9x    frame=22702 fps=879 q=-0.0 size=N/A time=00:15:46.86 bitrate=N/A speed=36.7x    frame=23027 fps=875 q=-0.0 size=N/A time=00:16:00.41 bitrate=N/A speed=36.5x    frame=23554 fps=877 q=-0.0 size=N/A time=00:16:22.39 bitrate=N/A speed=36.6x    frame=24034 fps=878 q=-0.0 size=N/A time=00:16:42.41 bitrate=N/A speed=36.6x    frame=24550 fps=880 q=-0.0 size=N/A time=00:17:03.93 bitrate=N/A speed=36.7x    frame=25035 fps=882 q=-0.0 size=N/A time=00:17:24.16 bitrate=N/A speed=36.8x    frame=25554 fps=884 q=-0.0 size=N/A time=00:17:45.81 bitrate=N/A speed=36.9x    frame=26064 fps=886 q=-0.0 size=N/A time=00:18:07.08 bitrate=N/A speed=36.9x    frame=26445 fps=883 q=-0.0 size=N/A time=00:18:22.97 bitrate=N/A speed=36.8x    frame=26864 fps=882 q=-0.0 size=N/A time=00:18:40.45 bitrate=N/A speed=36.8x    frame=27338 fps=883 q=-0.0 size=N/A time=00:19:00.22 bitrate=N/A speed=36.8x    frame=27832 fps=884 q=-0.0 size=N/A time=00:19:20.82 bitrate=N/A speed=36.9x    frame=28385 fps=887 q=-0.0 size=N/A time=00:19:43.89 bitrate=N/A speed=  37x    frame=28905 fps=889 q=-0.0 size=N/A time=00:20:05.57 bitrate=N/A speed=37.1x    frame=29282 fps=887 q=-0.0 size=N/A time=00:20:21.30 bitrate=N/A speed=  37x    frame=29696 fps=885 q=-0.0 size=N/A time=00:20:38.57 bitrate=N/A speed=36.9x    frame=30111 fps=884 q=-0.0 size=N/A time=00:20:55.87 bitrate=N/A speed=36.9x    frame=30559 fps=884 q=-0.0 size=N/A time=00:21:14.56 bitrate=N/A speed=36.9x    frame=31049 fps=885 q=-0.0 size=N/A time=00:21:35.00 bitrate=N/A speed=36.9x    frame=31591 fps=887 q=-0.0 size=N/A time=00:21:57.60 bitrate=N/A speed=  37x    frame=31989 fps=886 q=-0.0 size=N/A time=00:22:14.20 bitrate=N/A speed=36.9x    frame=32295 fps=881 q=-0.0 size=N/A time=00:22:26.97 bitrate=N/A speed=36.8x    frame=32764 fps=882 q=-0.0 size=N/A time=00:22:46.53 bitrate=N/A speed=36.8x    frame=33138 fps=879 q=-0.0 size=N/A time=00:23:02.13 bitrate=N/A speed=36.7x    frame=33440 fps=876 q=-0.0 size=N/A time=00:23:14.72 bitrate=N/A speed=36.5x    frame=33781 fps=873 q=-0.0 size=N/A time=00:23:28.94 bitrate=N/A speed=36.4x    frame=34240 fps=873 q=-0.0 size=N/A time=00:23:48.09 bitrate=N/A speed=36.4x    [Parsed_ssim_10 @ 0000024086e771c0] SSIM Y:0.984653 (18.139889) U:0.989925 (19.967645) V:0.989622 (19.838701) All:0.986360 (18.651887)
[out#0/null @ 00000240fafc66c0] video:14836KiB audio:270032KiB subtitle:0KiB other streams:0KiB global headers:0KiB muxing overhead: unknown
frame=34527 fps=875 q=-0.0 Lsize=N/A time=00:24:00.06 bitrate=N/A speed=36.5x    
